<?xml version="1.0" standalone="no"?>
<!DOCTYPE svg PUBLIC "-//W3C//DTD SVG 20010904//EN"
 "http://www.w3.org/TR/2001/REC-SVG-20010904/DTD/svg10.dtd">
<svg version="1.0" xmlns="http://www.w3.org/2000/svg"
 width="1596.000000pt" height="1596.000000pt" viewBox="0 0 1596.000000 1596.000000"
 preserveAspectRatio="xMidYMid meet">
<metadata>
Created by potrace 1.11, written by Peter Selinger 2001-2013
</metadata>
<g transform="translate(0.000000,1596.000000) scale(0.100000,-0.100000)"
fill="#000000" stroke="none">
<path d="M9426 14558 c1 -35 4 -208 5 -386 l4 -324 30 5 c17 3 69 10 116 17
l86 12 -17 52 c-9 28 -61 194 -116 369 -54 174 -101 317 -104 317 -3 0 -5 -28
-4 -62z"/>
<path d="M10427 14523 c-5 -8 -13 -22 -74 -133 -17 -30 -92 -165 -167 -299
-75 -134 -135 -245 -133 -247 3 -3 189 -74 201 -77 8 -2 86 313 111 448 3 17
10 46 15 65 5 19 12 49 14 65 3 17 14 65 25 108 17 72 19 88 8 70z"/>
<path d="M8703 13885 c111 -184 205 -335 210 -335 4 0 26 17 48 37 22 21 60
52 85 69 l44 32 -42 37 c-24 21 -90 82 -148 136 -58 54 -116 107 -130 119 -14
12 -74 67 -134 123 -59 56 -114 105 -121 110 -8 4 77 -144 188 -328z"/>
<path d="M10939 13757 c-174 -106 -327 -199 -340 -208 l-24 -16 40 -44 c33
-36 64 -75 102 -128 2 -3 17 11 35 30 17 19 72 78 122 133 100 109 104 113
226 247 47 51 94 102 105 114 32 33 58 65 54 64 -2 -1 -146 -87 -320 -192z"/>
<path d="M7844 13811 c-338 -139 -603 -274 -984 -503 -402 -241 -787 -512
-1200 -842 -212 -169 -607 -506 -711 -606 -15 -14 -66 -61 -114 -105 -212
-193 -638 -613 -864 -851 -57 -60 -129 -136 -160 -169 -32 -33 -122 -132 -201
-220 -79 -88 -151 -167 -159 -176 -9 -8 -41 -44 -71 -79 -30 -35 -60 -68 -65
-74 -30 -33 -261 -304 -386 -456 -431 -519 -877 -1111 -1215 -1612 -54 -81
-103 -156 -109 -165 -5 -10 -26 -43 -46 -73 -271 -410 -425 -692 -454 -827
l-7 -33 6886 0 c5758 0 6886 2 6886 13 0 43 -142 353 -200 436 -10 14 -78 121
-151 236 -242 384 -503 765 -758 1105 -171 229 -439 575 -522 675 -10 11 -59
72 -110 135 -52 63 -101 124 -111 135 -9 11 -43 52 -75 90 -32 39 -70 84 -84
100 -15 17 -85 97 -155 180 -71 82 -138 159 -149 171 -11 12 -47 52 -80 89
-33 37 -71 80 -85 95 -14 15 -61 67 -105 115 -208 229 -413 441 -725 750 -265
261 -340 334 -534 509 -43 39 -84 76 -90 81 -110 100 -190 165 -195 158 -4 -4
-28 -37 -54 -73 -145 -203 -359 -357 -602 -433 -123 -38 -213 -51 -360 -51
-117 0 -173 7 -275 35 -86 23 -209 69 -216 81 -3 4 -12 8 -20 8 -28 0 -209
128 -285 202 -116 113 -194 221 -255 355 -37 80 -81 220 -89 282 -3 20 -8 50
-11 66 -12 57 -6 250 10 341 28 161 94 322 186 460 29 43 58 82 64 86 7 5 4
13 -9 22 -36 27 -497 253 -635 312 -222 93 -186 91 -346 25z"/>
<path d="M9590 13709 c-82 -13 -101 -18 -169 -40 -317 -104 -561 -359 -656
-686 -30 -101 -38 -171 -37 -295 3 -430 284 -809 702 -947 265 -88 576 -54
820 89 462 270 636 861 393 1335 -147 287 -414 485 -733 541 -86 15 -238 16
-320 3z"/>
<path d="M11077 13012 l-198 -2 5 -28 c12 -54 16 -78 22 -137 4 -33 7 -61 8
-62 2 -3 105 29 491 151 l270 85 -200 -2 c-110 -1 -289 -3 -398 -5z"/>
<path d="M10851 12323 c-13 -38 -32 -84 -42 -104 l-18 -36 77 -18 c162 -36
242 -54 377 -85 77 -17 169 -38 205 -46 104 -23 110 -25 110 -20 0 2 -55 34
-122 72 -68 37 -139 76 -158 87 -19 11 -55 31 -80 45 -25 13 -104 58 -177 98
-72 41 -135 74 -140 74 -4 0 -19 -30 -32 -67z"/>
<path d="M718 5575 c-2 -1 -28 -5 -58 -8 -163 -16 -298 -75 -395 -172 -94 -94
-135 -187 -137 -309 -2 -177 94 -332 258 -418 43 -22 157 -62 299 -103 303
-87 343 -111 353 -214 11 -122 -101 -189 -314 -189 -159 0 -243 35 -343 144
-36 39 -66 64 -79 64 -20 0 -163 -91 -209 -133 -29 -26 -29 -41 -1 -80 67 -99
222 -195 383 -238 115 -30 358 -38 475 -14 182 36 299 104 384 222 103 144
105 368 5 525 -73 114 -180 169 -497 258 -239 67 -298 95 -328 152 -45 85 10
185 121 220 17 5 69 11 116 13 140 7 239 -28 325 -115 21 -22 46 -40 54 -40
17 0 201 134 213 156 14 24 -2 51 -60 104 -107 94 -277 159 -443 167 -47 2
-93 5 -102 7 -9 2 -18 3 -20 1z"/>
<path d="M1633 5538 c-13 -17 -14 -1586 -1 -1610 8 -16 26 -18 156 -18 81 0
154 4 162 10 11 7 15 39 16 157 1 81 2 153 3 160 1 12 180 193 192 193 3 0 62
-111 130 -247 68 -137 130 -254 139 -260 11 -9 62 -12 185 -10 167 2 170 2
173 24 2 13 -33 88 -89 190 -50 92 -108 197 -127 233 -19 36 -54 99 -77 140
-75 133 -96 180 -88 195 4 7 81 88 171 179 89 91 162 172 162 181 0 8 -7 18
-16 22 -14 5 -167 7 -263 4 -28 -1 -110 -84 -391 -396 -45 -49 -90 -90 -100
-90 -3 0 -5 209 -5 465 0 256 -4 471 -8 478 -6 9 -50 12 -161 12 -111 0 -156
-3 -163 -12z"/>
<path d="M9003 5538 c-14 -17 -15 -1586 -1 -1611 9 -18 30 -19 451 -14 412 4
448 6 526 26 254 65 366 194 364 416 -1 191 -81 293 -298 380 l-40 16 75 37
c146 72 220 175 225 317 6 162 -71 291 -217 362 -146 71 -230 81 -689 82 -303
1 -388 -1 -396 -11z m750 -264 c111 -29 167 -99 167 -207 0 -78 -39 -130 -125
-168 -45 -20 -67 -23 -223 -24 -109 0 -176 3 -181 10 -12 14 -10 377 1 392 13
17 296 14 361 -3z m33 -689 c198 -58 209 -320 15 -391 -35 -13 -88 -17 -220
-20 -103 -2 -180 1 -187 7 -11 9 -18 345 -8 396 5 27 17 29 202 26 97 -1 160
-7 198 -18z"/>
<path d="M11505 5529 c-13 -39 -9 -277 4 -293 10 -12 40 -14 166 -13 84 1 157
6 162 10 12 13 13 290 1 305 -8 9 -54 12 -169 12 -151 0 -158 -1 -164 -21z"/>
<path d="M12862 5538 c-6 -8 -10 -111 -10 -268 -1 -313 0 -290 -13 -290 -7 0
-31 16 -55 35 -108 88 -260 113 -399 63 -74 -26 -105 -47 -176 -119 -113 -115
-169 -285 -164 -499 3 -130 15 -203 52 -293 45 -111 120 -192 223 -241 61 -29
72 -31 180 -31 137 0 181 14 277 86 35 27 69 47 74 43 5 -3 9 -20 8 -37 -1
-18 1 -42 5 -54 7 -23 10 -23 161 -23 137 0 155 2 163 18 11 22 9 1593 -1
1610 -6 9 -50 12 -161 12 -111 0 -156 -3 -164 -12z m-162 -662 c0 2 21 -7 48
-20 62 -31 102 -72 103 -105 0 -14 1 -132 1 -262 0 -256 -2 -266 -58 -323 -46
-46 -83 -60 -154 -60 -119 0 -196 67 -231 201 -23 87 -20 310 5 390 20 62 69
130 113 155 40 24 110 37 146 27 15 -4 27 -6 27 -3z"/>
<path d="M14512 5103 c-29 -15 -74 -46 -99 -70 -26 -24 -52 -43 -58 -43 -6 0
-26 11 -45 23 -60 41 -121 65 -190 75 -60 9 -262 9 -328 -1 -123 -17 -253 -83
-311 -156 -73 -92 -89 -229 -38 -333 31 -62 86 -117 157 -153 l44 -22 -39 -21
c-22 -11 -53 -27 -70 -36 -51 -27 -114 -95 -121 -132 -14 -73 22 -141 94 -178
18 -9 32 -21 32 -27 0 -5 -21 -19 -46 -29 -63 -28 -127 -75 -148 -110 -21 -36
-27 -103 -13 -145 30 -91 140 -167 276 -190 19 -3 38 -8 42 -11 16 -9 178 -18
329 -18 142 0 267 16 330 41 8 4 17 7 20 7 32 6 135 70 173 108 66 66 90 124
91 218 1 153 -86 253 -261 299 -74 19 -123 25 -338 36 -250 13 -290 22 -283
67 5 34 66 59 155 64 204 11 242 15 298 29 233 61 355 228 304 417 -10 38 -9
44 10 60 18 13 36 16 96 12 69 -4 74 -2 80 18 9 27 9 203 1 217 -13 20 -89 11
-144 -16z m-452 -195 c136 -59 149 -261 22 -336 -42 -24 -57 -27 -132 -26 -99
1 -143 17 -188 68 -82 94 -33 256 91 299 52 18 159 15 207 -5z m-70 -943 c179
-8 195 -10 241 -31 73 -32 85 -116 27 -174 -44 -45 -132 -67 -264 -69 -255 -4
-384 51 -384 164 0 71 87 126 190 119 25 -2 110 -6 190 -9z"/>
<path d="M6405 5098 c-192 -24 -334 -106 -394 -228 -31 -62 -25 -73 54 -93 39
-9 86 -20 105 -23 19 -3 42 -9 50 -13 8 -4 21 -6 28 -5 6 1 15 2 20 3 4 0 18
18 30 39 62 99 210 142 312 90 58 -30 86 -79 89 -157 1 -33 -2 -62 -7 -65 -13
-8 -59 -13 -167 -21 -123 -8 -148 -12 -240 -40 -206 -62 -324 -187 -333 -352
-7 -132 46 -236 152 -298 72 -42 196 -58 306 -40 60 10 176 65 230 110 23 19
48 34 54 32 6 -2 12 -23 14 -48 7 -80 5 -79 161 -79 100 0 142 4 149 13 7 8
10 156 10 445 -1 412 -2 435 -22 495 -55 165 -188 234 -463 241 -43 1 -105 -2
-138 -6z m291 -653 c3 -14 4 -65 3 -114 l-4 -90 -45 -46 c-53 -54 -114 -79
-195 -79 -100 -1 -162 43 -169 118 -6 58 6 88 49 131 59 59 172 95 317 102 32
2 39 -2 44 -22z"/>
<path d="M11177 5093 c-75 -22 -137 -61 -206 -129 -35 -35 -67 -62 -71 -59 -4
2 -8 39 -9 82 -1 43 -6 82 -11 87 -5 5 -75 9 -156 9 -114 0 -148 -3 -155 -14
-14 -23 -11 -1133 3 -1147 8 -8 58 -12 159 -12 118 0 149 3 159 15 9 11 13
102 14 368 1 256 5 358 13 373 24 42 102 101 155 117 52 16 104 16 199 2 31
-5 49 -3 54 4 3 7 7 64 7 129 0 174 0 170 -21 177 -40 12 -87 12 -134 -2z"/>
<path d="M15235 5098 c-248 -32 -446 -223 -495 -478 -15 -79 -13 -219 5 -296
47 -202 209 -364 420 -419 61 -16 226 -21 300 -10 107 17 216 70 287 139 50
49 105 118 112 142 7 23 4 25 -123 75 l-73 30 -54 -51 c-81 -76 -150 -105
-249 -104 -60 1 -91 6 -126 23 -92 44 -157 143 -155 236 l1 40 397 3 c457 3
420 -7 412 106 -7 121 -23 183 -67 275 -101 208 -335 322 -592 289z m158 -212
c81 -14 165 -128 163 -221 l-1 -40 -238 -3 c-131 -1 -236 1 -233 6 3 5 6 28 8
52 5 92 102 197 192 208 22 2 43 6 45 8 3 2 12 2 20 0 9 -3 28 -7 44 -10z"/>
<path d="M2890 5076 c-11 -5 -20 -15 -20 -23 0 -12 260 -663 290 -728 22 -46
124 -303 136 -343 12 -38 11 -49 -2 -80 -36 -86 -74 -104 -227 -107 -65 -1
-122 -6 -127 -11 -8 -8 -14 -121 -11 -196 1 -35 37 -45 151 -43 199 5 293 40
376 139 56 68 93 142 194 393 51 125 103 253 115 283 13 30 56 136 95 235 40
99 78 194 86 210 50 113 94 240 89 256 -7 20 -7 20 -135 21 -114 1 -125 -3
-146 -60 -9 -26 -27 -74 -40 -107 -12 -33 -62 -168 -111 -299 -48 -132 -93
-241 -99 -243 -11 -4 -30 38 -74 162 -11 33 -23 67 -27 75 -3 8 -7 20 -9 25
-19 61 -153 408 -165 425 -14 22 -21 23 -167 24 -83 0 -161 -3 -172 -8z"/>
<path d="M4158 5080 c-14 -4 -24 -15 -26 -28 -3 -18 75 -273 108 -355 5 -12
63 -189 130 -394 66 -204 127 -376 134 -382 9 -8 57 -11 137 -9 l123 3 17 45
c10 25 38 113 64 195 78 251 125 397 135 414 11 21 3 43 121 -333 53 -170 103
-312 111 -317 7 -5 66 -9 130 -9 103 0 118 2 127 18 5 10 91 263 191 563 114
344 179 552 175 567 -6 24 -4 24 -134 24 -62 0 -87 -4 -99 -15 -8 -9 -30 -67
-49 -129 -34 -115 -80 -265 -135 -440 -17 -54 -34 -98 -39 -98 -4 0 -19 37
-33 83 -133 435 -178 573 -190 585 -20 21 -231 22 -251 1 -12 -12 -75 -205
-136 -419 -44 -151 -75 -242 -84 -243 -5 -1 -26 52 -46 118 -21 66 -63 199
-94 295 -31 96 -58 183 -60 194 -5 23 -33 66 -43 67 -34 4 -266 3 -284 -1z"/>
<path d="M7190 5076 c-11 -5 -20 -15 -20 -22 0 -12 100 -262 357 -892 41 -103
77 -199 78 -214 3 -37 -45 -112 -87 -134 -25 -14 -61 -18 -151 -19 -65 -1
-122 -6 -128 -12 -6 -6 -11 -56 -11 -113 -1 -107 3 -118 47 -121 152 -9 288 6
357 40 63 30 113 75 157 139 48 73 71 122 171 372 44 113 85 214 90 225 11 25
28 66 174 429 73 181 114 295 111 307 -7 20 -8 21 -130 22 -137 1 -122 15
-206 -210 -151 -412 -185 -497 -196 -500 -6 -2 -21 22 -33 54 -158 431 -235
630 -245 642 -15 16 -301 22 -335 7z"/>
<path d="M11528 5080 l-23 -6 -3 -568 c-1 -412 1 -573 9 -582 18 -22 302 -20
319 1 17 21 21 1120 4 1143 -8 11 -40 14 -147 15 -75 1 -146 0 -159 -3z"/>
<path d="M5619 3204 c-173 -29 -282 -99 -341 -222 -28 -60 -32 -77 -32 -157
-1 -81 3 -97 30 -155 61 -127 123 -168 394 -260 85 -29 182 -65 216 -80 111
-51 163 -131 150 -228 -19 -137 -136 -203 -351 -197 -144 4 -197 26 -299 126
l-80 78 -35 -21 c-50 -29 -81 -59 -81 -76 0 -23 131 -147 185 -175 104 -52
172 -69 305 -73 205 -6 344 38 441 138 68 70 92 137 92 256 -1 84 -4 99 -32
157 -58 116 -131 162 -414 256 -100 34 -199 70 -219 80 -113 58 -157 170 -108
278 39 84 121 131 245 138 143 9 247 -26 337 -114 l47 -46 55 43 c31 23 56 48
56 55 0 19 -89 98 -150 132 -120 67 -268 91 -411 67z"/>
<path d="M6568 3132 c-33 -3 -38 -6 -39 -30 -1 -15 -2 -38 -3 -52 -2 -14 -6
-74 -10 -135 -4 -60 -10 -113 -12 -117 -3 -4 -45 -8 -94 -8 -97 0 -96 1 -96
-70 l1 -45 95 -5 95 -5 2 -356 c1 -224 6 -372 13 -398 13 -51 64 -103 114
-118 50 -16 269 -15 289 0 16 12 20 31 18 80 l-1 27 -91 0 c-107 0 -149 15
-166 61 -8 21 -12 138 -13 370 l0 338 137 3 138 3 0 55 0 55 -135 5 -135 5 -3
166 -2 167 -33 3 c-17 2 -49 3 -69 1z"/>
<path d="M8314 3125 c-3 -9 -6 -38 -20 -235 -3 -47 -8 -88 -11 -92 -2 -5 -44
-8 -93 -8 -98 0 -97 1 -96 -70 l1 -45 95 -5 95 -5 1 -355 c1 -390 5 -420 57
-473 45 -45 89 -56 227 -56 131 0 151 7 152 54 1 66 7 63 -107 67 -99 3 -106
5 -132 31 l-28 27 -3 355 -3 354 138 3 138 3 0 55 0 55 -135 5 -135 5 -3 168
-2 167 -38 1 c-20 0 -50 2 -66 3 -15 1 -30 -3 -32 -9z"/>
<path d="M7393 2794 c-68 -14 -140 -49 -195 -94 -45 -37 -92 -106 -85 -124 3
-8 31 -23 62 -32 l55 -18 53 55 c50 52 117 94 168 104 122 25 241 -21 282
-108 21 -44 30 -162 14 -175 -7 -6 -52 -13 -102 -16 -253 -17 -370 -49 -472
-132 -120 -98 -131 -305 -21 -411 62 -60 119 -78 243 -77 132 1 193 20 290 94
35 26 66 46 69 42 3 -3 6 -24 6 -48 0 -71 4 -74 81 -74 l69 0 1 38 c2 153 -1
731 -5 748 -15 73 -72 149 -140 189 -88 51 -240 67 -373 39z m360 -526 c3 -13
4 -64 3 -114 -3 -77 -7 -96 -28 -127 -56 -83 -156 -137 -263 -143 -142 -8
-225 59 -225 181 0 111 112 187 310 211 30 3 56 7 57 8 1 0 33 2 71 4 65 3 70
2 75 -20z"/>
<path d="M10250 2797 c-167 -38 -264 -143 -263 -287 0 -101 44 -169 143 -220
20 -10 111 -40 201 -66 220 -62 274 -92 291 -162 24 -94 -103 -186 -253 -184
-135 2 -244 55 -312 153 l-17 24 -46 -25 c-54 -29 -61 -42 -44 -76 39 -72 147
-145 260 -175 63 -17 242 -21 295 -6 115 31 196 86 242 165 22 38 27 58 27
116 0 105 -43 177 -134 225 -36 18 -255 91 -335 111 -47 11 -119 47 -138 68
-42 46 -39 116 6 168 42 49 145 74 257 64 57 -6 134 -44 179 -90 32 -32 47
-41 64 -36 31 8 87 44 87 56 0 18 -65 83 -115 115 -27 18 -72 40 -100 49 -65
22 -223 29 -295 13z"/>
<path d="M8916 2773 c-10 -36 -5 -738 6 -793 12 -62 34 -100 87 -148 56 -51
121 -71 221 -69 72 2 95 7 153 34 37 18 94 53 126 78 33 25 62 45 65 45 3 0 6
-30 8 -67 l3 -68 71 -3 c62 -2 72 0 76 15 2 10 4 236 3 503 l0 485 -77 3 c-43
2 -79 -1 -79 -5 -1 -4 -2 -171 -3 -370 l-1 -362 -35 -32 c-52 -47 -148 -107
-189 -119 -84 -23 -175 -6 -221 41 -52 55 -53 67 -56 464 -1 204 -2 373 -3
378 0 4 -34 7 -75 7 -63 0 -75 -3 -80 -17z"/>
</g>
</svg>
