<?xml version="1.0" encoding="utf-8"?>
<!-- Generator: Adobe Illustrator 27.9.0, SVG Export Plug-In . SVG Version: 6.00 Build 0)  -->
<svg version="1.1" id="Layer_1" xmlns="http://www.w3.org/2000/svg" xmlns:xlink="http://www.w3.org/1999/xlink" x="0px" y="0px"
	 viewBox="0 0 2490 1100" style="enable-background:new 0 0 2490 1100;" xml:space="preserve">
<style type="text/css">
	.st0{fill:url(#SVGID_1_);}
</style>
<linearGradient id="SVGID_1_" gradientUnits="userSpaceOnUse" x1="6.3156" y1="550" x2="2483.6843" y2="550">
	<stop  offset="0" style="stop-color:#146787"/>
	<stop  offset="1" style="stop-color:#97E89F"/>
</linearGradient>
<path class="st0" d="M913.822,572.696V156.812c0-3.845,3.117-6.962,6.962-6.962h86.251c2.442,0,4.706,1.28,5.965,3.372
	l245.327,407.596c0.653,1.085,0.998,2.326,0.998,3.59v15.25h-92.488c-2.441,0-4.704-1.279-5.964-3.37l-145.485-241.504v237.911
	c0,3.845-3.117,6.962-6.962,6.962h-87.641C916.939,579.658,913.822,576.541,913.822,572.696z M1256.092,471.381
	c0.909,1.511,3.232,0.866,3.232-0.898V156.812c0-3.845-3.117-6.962-6.962-6.962h-87.641c-3.845,0-6.962,3.117-6.962,6.962v149.257
	c0,1.265,0.344,2.506,0.997,3.59L1256.092,471.381z M181.013,448.601h93.949c4.497,0,7.363-2.039,8.586-6.14l48.122-166.127
	c1.031-3.565,2.383-3.645,3.681,0l87.797,297.184c1.235,4.102,4.09,6.141,8.598,6.141h93.949c5.994,0,7.735-4.495,6.14-8.599
	L399.823,155.99c-1.235-4.089-3.897-6.14-7.987-6.14H275.786c-4.089,0-6.751,2.051-7.975,6.14l-92.937,284.013
	C173.112,446.106,176.561,448.601,181.013,448.601z M1687.988,579.658h87.197c4.108,0,7.364-3.16,7.364-7.363V408.958
	c0-1.695,1.374-3.07,3.07-3.07h114.816c1.695,0,3.07,1.374,3.07,3.07v163.337c0,3.534,3.801,7.363,7.375,7.363h87.185
	c4.735,0,7.375-2.663,7.375-7.363V346.349c0-14.33-11.556-25.978-25.885-26.093l-193.937-1.553c-2.051,0-3.07-1.02-3.07-3.07
	v-158.42c0-4.037-2.394-7.363-7.364-7.363h-87.197c-4.306,0-7.363,3.327-7.363,7.363v415.081
	C1680.624,576.034,1683.772,579.658,1687.988,579.658z M1586.38,814.193v122.802c0,36.819-14.787,160.255-167.63,160.255
	c-151.179,0-167.006-122.155-167.006-160.255V814.193c0-59.647,35.979-158.42,167.006-158.42
	C1568.332,655.774,1586.38,776.717,1586.38,814.193z M1484.444,812.97c0-27.113-11.462-69.994-65.694-70
	c-53.196-0.006-65.083,47.305-65.083,70v127.095c0,39.788,22.334,70,65.083,70c36.413,0,65.694-25.129,65.694-70V812.97z
	 M1995.418,237.611c5.727-0.724,10.021-5.595,10.021-11.368v-69.03c0-4.46-3.319-7.363-7.375-7.363h-87.185
	c-4.541,0-7.375,3.329-7.375,7.363v79.737c0,7.695,7.159,12.036,14.771,10.912C1927.779,246.459,1995.401,237.613,1995.418,237.611z
	 M19.64,579.658h218.737c3.097,0,5.822-2.046,6.686-5.02l21.284-73.261c1.293-4.453-2.048-8.904-6.686-8.904H117.27
	c-2.051,0-3.07-1.019-3.07-3.07v-332.19c0-4.326-2.418-7.363-7.363-7.363H19.64c-4.683,0-7.363,3.107-7.363,7.363v415.081
	C12.277,576.88,14.012,579.658,19.64,579.658z M1126.261,913.047c-0.828-2.038-0.204-3.466,1.847-4.293
	c24.14-9.006,42.98-23.541,56.484-43.592c26.903-39.948,25.435-101.188,3.382-140.923c-18.213-32.816-54.642-63.548-118.809-63.548
	H886.797c-4.679,0-7.363,3.785-7.363,7.363v415.081c0,4.36,3.474,7.364,7.363,7.364h87.197c4.374,0,7.363-3.606,7.363-7.364v-332.19
	c0-1.695,1.375-3.07,3.07-3.07h68.153c66.542,0,69.567,93.337,0,93.337h-52.11c-5.148,0-8.539,5.344-6.279,9.97
	c11.467,23.473,106.856,233.691,106.86,233.699c1.515,3.415,4.902,5.618,8.638,5.618h92.102c8.67,0,6.872-5.89,5.529-8.599
	L1126.261,913.047z M1629.045,438.435c0-3.074-3.118-6.14-7.375-6.14l-87.185-4.293c-4.917,0-7.364,2.255-7.364,6.751
	c0,52.657-41.807,62.625-62.636,62.625c-38.156,0-62.624-24.649-62.624-62.625V295.366c0-52.944,43.238-63.236,62.624-63.236
	c41.803,0,62.636,29,62.636,63.236c0,4.509,2.446,6.764,7.364,6.764l87.185-5.528c4.141-0.281,7.375-2.399,7.375-6.752
	c0-29.174-11.82-144.916-164.56-144.916c-143.302,0-164.548,110.479-164.548,152.891v132.624
	c0,31.048,12.437,154.126,164.548,154.126C1607.929,584.575,1629.045,477.478,1629.045,438.435z M2110.3,396.661l-133.823,493.673
	c-0.893,3.599-3.003,2.733-3.682,0l-53.414-223.503c-1.235-4.09-3.897-6.14-7.987-6.14h-85.35c-4.509,0-7.159,2.254-7.975,6.752
	l-47.898,222.891c-0.893,3.599-3.003,2.733-3.682,0l-53.414-223.503c-1.235-4.09-3.897-6.14-7.987-6.14h-93.325
	c-9.445,0-6.143,7.977-6.14,7.987l114.204,415.681c1.223,4.101,4.089,6.14,8.598,6.14h82.268c4.509,0,7.16-2.243,7.987-6.752
	l47.898-237.006c0.909-3.746,3.026-2.547,3.682,0l53.414,237.006c0.815,4.509,3.478,6.752,7.987,6.752h87.796
	c4.509,0,7.375-2.039,8.598-6.14l134.789-493.781C2171.721,566.404,2136.413,378.726,2110.3,396.661z M859.708,149.85h-87.185
	c-3.902,0-7.375,3.051-7.375,7.363v276.305c0,41.202-28.096,63.859-61.401,63.859c-38.41,0-62.013-25.738-62.013-63.859V157.213
	c0-5.107-2.23-7.363-7.363-7.363h-87.197c-5.053,0-7.363,2.421-7.363,7.363v276.305c0,133.045,122.726,151.056,163.936,151.056
	c142.573,0,163.336-108.633,163.336-151.056V157.213C867.083,152.696,864.283,149.85,859.708,149.85z M457.389,714.004
	c-3.44,36.356-23.787,198.663-117.407,296.389c0,0,57.802,64.51,63.415,70.895c4.953,5.635,1.328,9.137-4.293,9.21h-97.019
	c-4.09,0-7.159-1.224-9.21-3.682l-20.879-22.726c-1.23-1.21-2.134-1.873-4.293-0.611c-80.255,44.392-169.971,39.192-220.732,4.305
	c-56.458-38.802-45.412-117.287-19.044-151.668c14.128-18.421,33.255-34.79,57.42-49.121c2.447-1.631,1.992-2.411,0.612-4.293
	C19.269,790.72,37.392,737.176,55.869,710.123c31.854-46.636,82.686-54.35,116.05-54.35c29.629,0,88.346,7.806,120.955,56.796
	c25.818,38.786,21.186,95.153-2.458,127.407c-13.504,18.421-31.924,35.006-55.261,49.744c-2.051,1.223-2.255,2.662-0.611,4.293
	c8.598,9.822,22.306,24.969,41.146,45.439c0.169,0.227,1.584,1.821,3.766,4.252c60.581-67.248,83.777-183.702,88.547-236.112
	c0.341-3.743,3.643-6.489,7.394-6.235l75.52,5.124C454.827,706.749,457.758,710.102,457.389,714.004z M203.843,991.645
	c0,0-36.84-39.299-51.579-55.261c-0.815-1.235-2.254-1.427-4.293-0.611c-12.05,4.82-62.284,39.804-26.707,67.229
	c7.488,5.772,41.804,17.041,81.968-7.064C205.27,994.715,205.474,993.288,203.843,991.645z M174.378,747.875
	c-37.17,0-34.252,31.914-27.942,42.369c3.47,5.749,10.949,15.566,22.414,29.477c0.815,1.643,2.243,2.05,4.293,1.223
	c11.452-6.956,19.825-14.328,26.407-20.879C213.64,786.043,215.725,747.875,174.378,747.875z M655.753,655.774
	c-143.15,0-164.548,111.917-164.548,156.573v125.872c0,140.461,122.658,157.196,164.548,157.196
	c143.946,0,164.56-111.907,164.56-154.127v-83.503c0-4.266-2.976-7.363-7.375-7.363H655.753c-3.718,0-7.363,2.927-7.363,7.363
	v67.541c0,3.382,2.453,7.375,7.363,7.375h61.401c2.05,0,3.07,1.019,3.07,3.07c0,0.011,10.763,71.834-60.166,71.834
	c-63.722,0-66.93-46.252-66.93-66.318V809.277c0-46.643,32.508-66.306,62.625-66.306c44.626,0,62.636,31.838,62.636,57.719
	c0,3.35,2.482,7.363,7.363,7.363h87.185c7.375,0,7.375-7.294,7.375-10.433C820.313,770.188,803.021,655.774,655.753,655.774z
	 M2208.517,558.466l11.432-90.408c11.171-88.344,80.741-157.914,169.085-169.085l90.408-11.432c5.656-0.715,5.656-8.908,0-9.624
	l-90.408-11.432c-88.344-11.171-157.914-80.741-169.085-169.085l-11.432-90.408c-0.715-5.656-8.908-5.656-9.624,0L2187.462,97.4
	c-11.171,88.344-80.741,157.914-169.085,169.085l-90.408,11.432c-5.656,0.715-5.656,8.908,0,9.624l90.408,11.432
	c88.344,11.171,157.914,80.741,169.085,169.085l11.432,90.408C2199.609,564.122,2207.802,564.122,2208.517,558.466z"/>
</svg>
